<?xml version="1.0" encoding="iso-8859-1"?>
<!-- Uploaded to: SVG Repo, www.svgrepo.com, Generator: SVG Repo Mixer Tools -->
<!DOCTYPE svg PUBLIC "-//W3C//DTD SVG 1.1//EN" "http://www.w3.org/Graphics/SVG/1.1/DTD/svg11.dtd">
<svg fill="#FFFFFF" version="1.1" id="Capa_1" xmlns="http://www.w3.org/2000/svg" xmlns:xlink="http://www.w3.org/1999/xlink" 
	 width="800px" height="800px" viewBox="0 0 427.453 427.453"
	 xml:space="preserve">
<g>
	<g id="Layer_2_43_">
		<path d="M427.034,166.57c-1.576-5.293-7.146-8.305-12.439-6.729l-37.108,11.052l17.086-31.58
			c2.627-4.857,0.819-10.926-4.037-13.554c-4.855-2.626-10.927-0.821-13.554,4.037l-26.602,49.169l-48.438,14.426l14.95-87.181
			c0.644-3.752-0.899-7.543-3.979-9.781c-3.08-2.237-7.164-2.532-10.531-0.761l-78.658,41.353V84.537l39.531-39.531
			c3.906-3.905,3.906-10.237,0-14.143c-3.906-3.904-10.236-3.904-14.144,0l-25.389,25.389v-38.72c0-5.523-4.477-10-10-10
			c-5.523,0-10,4.477-10,10v38.72l-25.386-25.387c-3.905-3.906-10.237-3.905-14.142,0c-3.905,3.905-3.905,10.237,0,14.142
			l39.531,39.531v52.485L125.067,95.67c-3.37-1.772-7.452-1.477-10.531,0.761c-3.079,2.237-4.622,6.029-3.978,9.781l14.952,87.181
			l-48.437-14.426L50.47,129.798c-2.628-4.857-8.696-6.665-13.554-4.037c-4.857,2.628-6.665,8.696-4.037,13.554l17.086,31.58
			l-37.109-11.052c-5.294-1.578-10.861,1.437-12.438,6.729c-1.576,5.293,1.437,10.862,6.729,12.438l37.11,11.052l-31.58,17.085
			c-4.857,2.628-6.665,8.696-4.037,13.554c1.81,3.345,5.25,5.243,8.804,5.243c1.607,0,3.237-0.387,4.75-1.206l49.171-26.602
			l48.332,14.395l-63.934,62.321c-2.726,2.656-3.707,6.631-2.531,10.25c1.176,3.621,4.306,6.259,8.073,6.807l82.616,12.006
			L116.7,339.067l-55.461,7.055c-5.479,0.697-9.355,5.703-8.658,11.182c0.696,5.479,5.702,9.359,11.182,8.658l35.621-4.529
			L75.676,392.05c-3.381,4.367-2.583,10.648,1.784,14.029c1.822,1.41,3.977,2.094,6.115,2.094c2.988,0,5.943-1.332,7.914-3.877
			l23.706-30.615l4.529,35.615c0.642,5.051,4.946,8.738,9.907,8.738c0.42,0,0.846-0.025,1.274-0.08
			c5.479-0.695,9.355-5.703,8.659-11.182l-7.052-55.457l30.614-39.535l41.632,84.354c1.685,3.414,5.161,5.574,8.967,5.574
			c3.806,0,7.283-2.16,8.968-5.574l40.537-82.138l28.9,39.149l-8.324,55.283c-0.822,5.461,2.938,10.555,8.398,11.379
			c0.506,0.076,1.006,0.113,1.502,0.113c4.865,0,9.131-3.557,9.877-8.514l5.346-35.506l23,31.154
			c1.961,2.656,4.986,4.061,8.053,4.061c2.063,0,4.146-0.637,5.933-1.955c4.442-3.279,5.385-9.543,2.104-13.984l-22.995-31.152
			l35.502,5.348c5.455,0.818,10.556-2.938,11.378-8.398c0.821-5.461-2.938-10.556-8.398-11.379l-55.279-8.326l-27.299-36.977
			l85.221-12.384c3.767-0.547,6.896-3.187,8.072-6.806c1.176-3.621,0.195-7.594-2.531-10.252l-63.934-62.321l48.33-14.395
			l49.172,26.601c1.514,0.818,3.144,1.207,4.75,1.207c3.555,0,6.994-1.898,8.805-5.243c2.627-4.856,0.82-10.926-4.036-13.554
			l-31.58-17.085l37.108-11.052C425.597,177.432,428.61,171.863,427.034,166.57z M293.755,122.801l-13.199,76.96l-56.83,16.925
			v-57.068L293.755,122.801z M133.694,122.801l70.031,36.817v57.068l-56.832-16.925L133.694,122.801z M84.233,275.029l57.412-55.964
			l55.238,16.453l-38.895,50.229L84.233,275.029z M213.726,369.11l-36.978-74.924l36.787-47.508l36.327,49.209L213.726,369.11z
			 M343.22,275.029l-75.768,11.01l-37.224-50.421l55.578-16.553L343.22,275.029z"/>
	</g>
</g>
</svg>